<?xml version="1.0" encoding="UTF-8"?>
<svg id="Layer_1" data-name="Layer 1" xmlns="http://www.w3.org/2000/svg" viewBox="0 0 1135.97 843.1">
  <defs>
    <style>
      .cls-1 {
        letter-spacing: .05em;
      }

      .cls-2 {
        letter-spacing: .05em;
      }

      .cls-3, .cls-4, .cls-5, .cls-6 {
        fill: #595959;
      }

      .cls-7 {
        letter-spacing: .04em;
      }

      .cls-4 {
        font-size: 91.3px;
      }

      .cls-4, .cls-5, .cls-6 {
        font-weight: 700;
      }

      .cls-4, .cls-6 {
        font-family: Montserrat-ExtraBold, Montserrat;
      }

      .cls-8 {
        letter-spacing: 0em;
      }

      .cls-9 {
        letter-spacing: .01em;
      }

      .cls-10 {
        letter-spacing: 0em;
      }

      .cls-5 {
        font-family: Montserrat-Bold, Montserrat;
        font-size: 46.6px;
      }

      .cls-6 {
        font-size: 87.44px;
      }

      .cls-11 {
        letter-spacing: .14em;
      }

      .cls-12 {
        letter-spacing: .14em;
      }

      .cls-13 {
        letter-spacing: .04em;
      }

      .cls-14 {
        letter-spacing: .15em;
      }

      .cls-15 {
        letter-spacing: .14em;
      }
    </style>
  </defs>
  <text class="cls-4" transform="translate(418.68 518.71)"><tspan class="cls-14" x="0" y="0">L</tspan><tspan class="cls-12" x="69.3" y="0">A</tspan><tspan class="cls-15" x="153.94" y="0">Z</tspan><tspan class="cls-11" x="228.26" y="0">O</tspan></text>
  <text class="cls-6" transform="translate(316.44 589.06)"><tspan class="cls-9" x="0" y="0">DEN H</tspan><tspan class="cls-13" x="301.77" y="0">A</tspan><tspan class="cls-10" x="373.91" y="0">A</tspan><tspan class="cls-8" x="442.64" y="0">G</tspan></text>
  <text class="cls-5" transform="translate(471.19 630.25)"><tspan class="cls-1" x="0" y="0">S</tspan><tspan class="cls-7" x="32.06" y="0">P</tspan><tspan class="cls-1" x="68.03" y="0">IRI</tspan><tspan class="cls-2" x="139.84" y="0">T</tspan><tspan class="cls-1" x="170.74" y="0">S</tspan></text>
  <path class="cls-3" d="m1042.51,347.31s.05-.02.05-.02c-.29-2.47-2.72-4.13-5.26-5.75-.72-1.48-2.47-2.39-4.48-3.02-2.48-.78-5.1-1.36-7.65-2.03-.81-.39-1.37-.95-2.53-1.09-1.94-.24-3.56-1-5.25-1.62l-.89.08c-5.05-2.16-10.25-3.44-15.33-.63-.52.29-1.19.3-1.69.02-1.17-.66-2.79-.68-4.09-.89-1.54-.24-3.67-.48-5.18.25-2.89,1.39-5.88,2.76-8.29,4.46-2.05,1.45-5.01,1.58-7.22,2.82-1.93,1.08-3.59,2.34-5.47,3.45v-68.98c0-2.74-3.44-4.96-7.69-4.96h-174.25c-4.25,0-7.69,2.22-7.69,4.96v115.73h-25.83v-128.45c0-.75-.95-1.36-2.12-1.36h-4.29c-1.17,0-2.12-.61-2.12-1.36v-16.04c0-.75-.95-1.36-2.12-1.36h-54.25c-1.17,0-2.12.61-2.12,1.36v16.04c0,.75-.95,1.36-2.12,1.36h-4.29c-1.17,0-2.12.61-2.12,1.36v128.45h-23.49v-151.39h-.41l-.42-10.86c-.02-.63-1.07-1.03-1.94-.73l-.78.27c-.84.29-1.87-.08-1.93-.69l-3.66-32.99c-.11-.98-2.29-1.08-2.61-.12l-5.64,16.86-.03.11-3.35,28.16h-5.67v-32.93l2.95-25.11h-.12c.05-.05.08-.11.06-.17l-6.48-19.33c-.09-.26-.68-.22-.68.05v19.45h-3.45v-15.97c0-.54-.68-.98-1.53-.98h-5.21l-4.11-16.75c-.12-.48-.76-.84-1.52-.84h-6.62v-6.92h-5.51v6.92h-6c-.76,0-1.41.36-1.52.84l-4.11,16.75h-4.22c-.84,0-1.53.44-1.53.98v15.97h-3.19v-19.81c0-.22-.49-.25-.56-.04l-6.61,19.71s0,.1.05.14h-.1l2.75,25.11v32.93h-3.67l-2.99-25.11-.03-.11-5.64-16.86c-.32-.96-2.5-.86-2.61.12l-3.66,32.99c-.07.61-1.09.98-1.93.69l-.78-.27c-.87-.3-1.91.1-1.94.73l-.3,7.82h-.33v151.39h-14.87v-61.92c0-1.15-1.44-2.07-3.22-2.07h-9.37v-52.52c0-1.11-1.4-2.01-3.12-2.01h-7.13c-16.93-16.24-23.49-52.55-24.29-57.31-.01-.07-.16-.07-.17,0-.8,4.76-7.36,41.07-24.29,57.31h-3.59c-1.72,0-3.12.9-3.12,2.01v52.52h-12.91c-1.78,0-3.22.93-3.22,2.07v61.92h-8.31c1.1,0,2-.61,2-1.36v-93.56c0-.75-.89-1.36-2-1.36h-4.79l-.59-.56c-.35-8.25-8.3-12.18-11.03-13.28-.57-.23-.91-.64-.94-1.1-.53-6.92-8.25-9.68-11.32-10.51-.76-.2-1.24-.7-1.24-1.26v-8.21c0-.75-.89-1.36-2-1.36h-12.85c-1.1,0-2,.61-2,1.36v8.21c0,.55-.49,1.05-1.24,1.26-3.07.83-10.79,3.59-11.32,10.51-.03.45-.37.87-.94,1.1-2.73,1.11-10.68,5.03-11.03,13.28l-.59.56h-4.79c-1.1,0-2,.61-2,1.36v93.56c0,.75.89,1.36,2,1.36h-9.89c1.1,0,2-.58,2-1.29v-88.61c0-.71-.89-1.29-2-1.29h-4.79l-.59-.53c-.35-7.82-8.3-11.53-11.03-12.58-.57-.22-.91-.61-.94-1.04-.53-6.55-8.25-9.17-11.32-9.95-.76-.19-1.24-.67-1.24-1.19v-7.78c0-.71-.89-1.29-2-1.29h-12.85c-1.1,0-2,.58-2,1.29v7.78c0,.52-.49,1-1.24,1.19-3.07.78-10.79,3.4-11.32,9.95-.03.43-.37.82-.94,1.04-2.73,1.05-10.68,4.76-11.03,12.58l-.59.53h-4.79c-1.1,0-2,.58-2,1.29v88.61c0,.71.89,1.29,2,1.29h-12.38c.97,0,1.75-.5,1.75-1.13v-81.53c0-.62-.78-1.13-1.75-1.13h-3.15l-16.19-27.04c-.26-.43-.91-.72-1.63-.72h-31.44c-.72,0-1.37.29-1.63.72l-16.19,27.04h-2.59c-.97,0-1.75.5-1.75,1.13v34.21c-.07,0-.05,0-.12,0-.68-1.55-2.47-2.49-4.53-3.14-2.48-.78-5.1-1.36-7.65-2.03-.81-.39-1.37-.95-2.53-1.09-1.94-.24-3.56-1-5.25-1.62l-.89.08c-5.05-2.16-10.25-3.44-15.33-.63-.52.29-1.19.3-1.69.02-1.17-.66-2.79-.68-4.09-.89-1.54-.24-3.67-.48-5.18.25-2.89,1.39-5.88,2.76-8.29,4.46-2.05,1.45-5.01,1.58-7.22,2.82-2.71,1.52-4.89,3.4-7.9,4.7-4.03,1.68-3.53,6.54-2.22,8.79,0,0,0,0,0,0-.1.24-.19.48-.29.72-1.78.53-1.75,1.02-.74,2.19,1.07,1.23,1.4,2.66,4.05,2.92.12.01.28.17.29.26.22,1.36,2.02,1.4,3.45,1.67,1.64.31,3.35.49,5.02.72.38.12.76.26,1.15.37,2.81.8,5.85.04,8.7.5,1.55.25,3.02.21,4.48-.14.05.03.11.06.18.08,1.49.51,2.98,1.01,4.34,1.66,1.4.67,2.45,1.54,3.61,2.36.42.3.87.58,1.3.88,1.46,2.42,2.52,4.92,3.06,7.5.27,3.03-.4,5.98-1.4,8.9l-1.74,1.96-.46.3c-1.14.4-2.51.52-3.78.31-.25-.04-.46,0-.63.07-.14-.02-.28-.03-.43-.05-1.38.17-2.92-.54-4.17.33-1.95,1.13-4.16,2.06-6.21,3.18h-9.26c-6.76,0-12.24,3.53-12.24,7.89v162.52c0,4.36,5.48,7.89,12.24,7.89h192.69c1.87,0,3.39-.98,3.39-2.18v-7.05c0-1.21-1.52-2.18-3.39-2.18H125.9c-1.87,0-3.39-.98-3.39-2.18v-151.11c0-1.21,1.52-2.18,3.39-2.18h892.99c1.87,0,3.39.98,3.39,2.18v151.11c0,1.21-1.52,2.18-3.39,2.18h-183.84c-1.87,0-3.39.98-3.39,2.18v7.05c0,1.21,1.52,2.18,3.39,2.18h192.69c6.76,0,12.24-3.53,12.24-7.89v-162.52c0-4.36-5.48-7.89-12.24-7.89h-3.4c-4.14-1.45-8.3-2.84-12.78-3.81-.29-1.02-.63-2.04-1.07-3.04l-.47-1.56c-.25-1.31-.75-2.56-1.26-3.82.04-.84.2-1.69.31-2.55.2-1.55-.27-3.04-.43-4.58-.14-1.33-.05-2.68.04-4.02.31-.59.69-1.17,1.05-1.74.72-1.12,1.73-2.16,2.99-3.06,1.06-.76,2.13-1.52,3.25-2.25.3.09.6.2.91.35,1.8.86,3.9,1.67,6.38.89.46,0,.91,0,1.37-.01,1.01-.13,2.07-.45,3.02-.35,1.7.17,2.82-.26,3.85-1,0,0,0,.01,0,.02,3.07.94,6.01.46,8.91-.36,0,0-.03.02-.03.02,1.68.03,2.92-.4,3.63-1.41,0,0,.01,0,.01,0,2.35-2.31,1.5-8.2-1.51-10.51Zm-896.8,11.17c-.02,1.02-.05,2.05-.07,3.07-.04,1.43-.08,2.86-.11,4.3-.2.48-.39.96-.61,1.51-.98-1.03-2-2.06-3.3-2.91-1.75-1.13-4.16-1.78-6.41-2.43-.03-.05-.05-.1-.07-.15-.3-.12-.59-.23-.87-.36,0,0,0,0,0,0,.12-.56,0-1.23,1.35-1.24,2.88-.16,5.93.13,7.97-1.76.91-.84.74-1.91,2.12-2.7v2.68c.08-.17.24-.35.32-.52-.08.17-.23.35-.32.52Zm4.74,2.21c-.54-1.74.2-3.53-.2-5.27-.12,0-.24.02-.36.05-.2-.12-.4-.25-.6-.37.2.12.4.25.6.37.12-.03.24-.05.36-.05.19-.19.4-.27.65-.04.73.06,1.5.28,2.1-.2,0,0,0,0,0,0,1.1-.14,2-.11,2.03.85.02.4.36.71.98.85h0s0-.01,0-.01c.75.49.61,1,.39,1.5-.82.47-1.61.96-2.38,1.45-1.03.42-1.87,1.05-2.93,1.43,0,0,0,0-.02-.01-.07-.04-.14-.09-.21-.13-.04-.02-.07-.05-.1-.07-.01-.02-.14-.12-.15-.14-.06-.06-.11-.11-.16-.17,0,0,0,0-.01-.01Zm.32.33s0,0-.01,0c-.07-.05,0-.01.01,0Zm15.53,29.08c-4.14-1.45-8.3-2.84-12.78-3.81-.33-1.15-.72-2.28-1.23-3.4-.15-.61-.3-1.22-.45-1.83-.27-1.09-.69-2.13-1.12-3.19.04-.84.2-1.69.31-2.55.2-1.55-.27-3.04-.43-4.58-.14-1.33-.05-2.68.04-4.02.31-.59.69-1.17,1.05-1.74.78-1.22,1.81-2.22,3.18-3.2,1-.71,2.01-1.42,3.05-2.11.3.09.6.2.91.35,1.8.86,3.9,1.67,6.38.89.46,0,.91,0,1.37-.01,1.01-.13,2.07-.45,3.02-.35,1.7.17,2.82-.26,3.85-1,0,0,0,.01,0,.02,2.04.62,4.02.61,5.97.3v29.1c0,.62.78,1.13,1.75,1.13h-14.88Zm44.03-87.43c0-3.12,3.92-5.64,8.75-5.64h0c4.83,0,8.75,2.53,8.75,5.64v5.64h-17.51v-5.64Zm3.74,79.21h-17.51v-11.29h17.51v11.29Zm0-19.07h-17.51v-11.29h17.51v11.29Zm0-19.07h-17.51v-11.29h17.51v11.29Zm0-19.07h-17.51v-11.29h17.51v11.29Zm27.54,57.21h-17.51v-11.29h17.51v11.29Zm0-19.07h-17.51v-11.29h17.51v11.29Zm0-19.07h-17.51v-11.29h17.51v11.29Zm0-19.07h-17.51v-11.29h17.51v11.29Zm49.31,50.15h-14.43v-17.52h14.43v17.52Zm0-24.89h-14.43v-13.02h14.43v13.02Zm0-22.64h-14.43v-13.02h14.43v13.02Zm22.16,47.53h-14.43v-17.52h14.43v17.52Zm0-24.89h-14.43v-13.02h14.43v13.02Zm0-22.64h-14.43v-13.02h14.43v13.02Zm0-22.3h-14.43v-13.02h14.43v13.02Zm22.16,69.84h-14.43v-17.52h14.43v17.52Zm0-24.89h-14.43v-13.02h14.43v13.02Zm0-22.64h-14.43v-13.02h14.43v13.02Zm39.87,47.53h-14.43v-18.98h14.43v18.98Zm0-26.96h-14.43v-14.1h14.43v14.1Zm0-24.52h-14.43v-14.1h14.43v14.1Zm22.16,51.47h-14.43v-18.98h14.43v18.98Zm0-26.96h-14.43v-14.1h14.43v14.1Zm0-24.52h-14.43v-14.1h14.43v14.1Zm0-24.15h-14.43v-14.1h14.43v14.1Zm22.16,75.62h-14.43v-18.98h14.43v18.98Zm0-26.96h-14.43v-14.1h14.43v14.1Zm0-24.52h-14.43v-14.1h14.43v14.1Zm57.83-39.01c0-4.06,5.11-7.36,11.41-7.36h0c6.3,0,11.41,3.29,11.41,7.36v6.21h-22.82v-6.21Zm0,14.2h10.23v5.49c-2.72.35-4.78,1.9-4.78,3.76,0,2.12,2.67,3.84,5.96,3.84s5.96-1.72,5.96-3.84c0-1.86-2.05-3.41-4.78-3.76v-5.49h10.23v27.14h-22.82v-27.14Zm-11.8,81.03h-11.41v-15.09h11.41v15.09Zm14.16,0h-11.41v-15.09h11.41v15.09Zm0-26.25h-25.57v-15.09h25.57v15.09Zm20.46,26.25h-11.41v-15.09h11.41v15.09Zm14.16,0h-11.41v-15.09h11.41v15.09Zm0-26.25h-25.57v-15.09h25.57v15.09Zm63.68-9.24h-7.16v-48.46h7.16v48.46Zm0-53.53h-7.16v-17.58h7.16v17.58Zm0-22.66h-7.16v-13.57h7.16v13.57Zm32.11-74.82h4.98v10.74h-4.98v-10.74Zm0,21.14h4.98v22.91h-4.98v-22.91Zm-4.99,40.11v13.57h-7.16v-13.57h7.16Zm-7.16,36.23v-17.58h7.16v17.58h-7.16Zm7.16,5.07v48.46h-7.16v-48.46h7.16Zm-9.3-102.55h4.98v10.74h-4.98v-10.74Zm0,21.14h4.98v22.91h-4.98v-22.91Zm-4.26,40.11v13.57h-7.16v-13.57h7.16Zm0,18.64v17.58h-7.16v-17.58h7.16Zm-10.03-79.89h4.98v10.74h-4.98v-10.74Zm0,21.14h4.98v22.91h-4.98v-22.91Zm2.87,81.41h7.16v48.46h-7.16v-48.46Zm34.28,95.95h-33.08v-22.86c0-5.89,7.41-10.66,16.54-10.66h0c9.14,0,16.54,4.77,16.54,10.66v22.86Zm0-47.5h-7.16v-48.46h7.16v48.46Zm0-53.53h-7.16v-17.58h7.16v17.58Zm0-22.66h-7.16v-13.57h7.16v13.57Zm13.56,76.19h-7.16v-48.46h7.16v48.46Zm0-53.53h-7.16v-17.58h7.16v17.58Zm0-22.66h-7.16v-13.57h7.16v13.57Zm64.43,114.89h-6.88v-90.16h6.88v90.16Zm4.5-96.65h-5.22v-31.17h5.22v31.17Zm10.19,96.65h-6.88v-90.16h6.88v90.16Zm.94-96.65h-5.22v-31.17h5.22v31.17Zm5.91-31.17h5.22v31.17h-5.22v-31.17Zm7.83,127.83h-6.88v-90.16h6.88v90.16Zm3.31-127.83h5.22v31.17h-5.22v-31.17Zm11.38,127.83h-6.88v-90.16h6.88v90.16Zm180.92-102.99h13.47v8.69h-13.47v-8.69Zm0,11.29h13.47v8.69h-13.47v-8.69Zm0,11.29h13.47v8.69h-13.47v-8.69Zm0,11.29h13.47v8.69h-13.47v-8.69Zm0,11.29h13.47v8.69h-13.47v-8.69Zm0,11.29h13.47v8.69h-13.47v-8.69Zm0,11.29h13.47v8.69h-13.47v-8.69Zm0,11.29h13.47v8.69h-13.47v-8.69Zm-17.81-79h13.47v8.69h-13.47v-8.69Zm0,11.29h13.47v8.69h-13.47v-8.69Zm0,11.29h13.47v8.69h-13.47v-8.69Zm0,11.29h13.47v8.69h-13.47v-8.69Zm0,11.29h13.47v8.69h-13.47v-8.69Zm0,11.29h13.47v8.69h-13.47v-8.69Zm0,11.29h13.47v8.69h-13.47v-8.69Zm0,11.29h13.47v8.69h-13.47v-8.69Zm-17.81-79h13.47v8.69h-13.47v-8.69Zm0,11.29h13.47v8.69h-13.47v-8.69Zm0,11.29h13.47v8.69h-13.47v-8.69Zm0,11.29h13.47v8.69h-13.47v-8.69Zm0,11.29h13.47v8.69h-13.47v-8.69Zm0,11.29h13.47v8.69h-13.47v-8.69Zm0,11.29h13.47v8.69h-13.47v-8.69Zm0,11.29h13.47v8.69h-13.47v-8.69Zm-17.81-79h13.47v8.69h-13.47v-8.69Zm0,11.29h13.47v8.69h-13.47v-8.69Zm0,11.29h13.47v8.69h-13.47v-8.69Zm0,11.29h13.47v8.69h-13.47v-8.69Zm0,11.29h13.47v8.69h-13.47v-8.69Zm0,11.29h13.47v8.69h-13.47v-8.69Zm0,11.29h13.47v8.69h-13.47v-8.69Zm0,11.29h13.47v8.69h-13.47v-8.69Zm-17.81-79h13.47v8.69h-13.47v-8.69Zm0,11.29h13.47v8.69h-13.47v-8.69Zm0,11.29h13.47v8.69h-13.47v-8.69Zm0,11.29h13.47v8.69h-13.47v-8.69Zm0,11.29h13.47v8.69h-13.47v-8.69Zm0,11.29h13.47v8.69h-13.47v-8.69Zm0,11.29h13.47v8.69h-13.47v-8.69Zm0,11.29h13.47v8.69h-13.47v-8.69Zm-17.81-79h13.47v8.69h-13.47v-8.69Zm0,11.29h13.47v8.69h-13.47v-8.69Zm0,11.29h13.47v8.69h-13.47v-8.69Zm0,11.29h13.47v8.69h-13.47v-8.69Zm0,11.29h13.47v8.69h-13.47v-8.69Zm0,11.29h13.47v8.69h-13.47v-8.69Zm0,11.29h13.47v8.69h-13.47v-8.69Zm0,11.29h13.47v8.69h-13.47v-8.69Zm-17.81-79h13.47v8.69h-13.47v-8.69Zm0,11.29h13.47v8.69h-13.47v-8.69Zm0,11.29h13.47v8.69h-13.47v-8.69Zm0,11.29h13.47v8.69h-13.47v-8.69Zm0,11.29h13.47v8.69h-13.47v-8.69Zm0,11.29h13.47v8.69h-13.47v-8.69Zm0,11.29h13.47v8.69h-13.47v-8.69Zm0,11.29h13.47v8.69h-13.47v-8.69Zm-17.81-79h13.47v8.69h-13.47v-8.69Zm0,11.29h13.47v8.69h-13.47v-8.69Zm0,11.29h13.47v8.69h-13.47v-8.69Zm0,11.29h13.47v8.69h-13.47v-8.69Zm0,11.29h13.47v8.69h-13.47v-8.69Zm0,11.29h13.47v8.69h-13.47v-8.69Zm0,11.29h13.47v8.69h-13.47v-8.69Zm0,11.29h13.47v8.69h-13.47v-8.69Zm77.11,24.25h-67.47v-8.69h67.47v8.69Zm71.21,0h-67.47v-8.69h67.47v8.69Zm7.66-15.56h-13.47v-8.69h13.47v8.69Zm0-11.29h-13.47v-8.69h13.47v8.69Zm0-11.29h-13.47v-8.69h13.47v8.69Zm0-11.29h-13.47v-8.69h13.47v8.69Zm0-11.29h-13.47v-8.69h13.47v8.69Zm0-11.29h-13.47v-8.69h13.47v8.69Zm0-11.29h-13.47v-8.69h13.47v8.69Zm0-11.29h-13.47v-8.69h13.47v8.69Zm48.9,95.5c-.58.65-1.16,1.31-1.74,1.96-.06.06-.12.13-.18.19-1.2.49-2.69.64-4.07.42-.25-.04-.46,0-.63.07-.14-.02-.28-.03-.43-.05-1.38.17-2.92-.54-4.17.33-1.95,1.13-4.16,2.06-6.21,3.18h-15.13v-29.36c.65.2,1.43.28,2.12.41,1.64.31,3.35.49,5.02.72.38.12.76.26,1.15.37,2.81.8,5.85.04,8.7.5,1.55.25,3.02.21,4.48-.14.05.03.11.06.18.08,1.49.51,2.99,1.01,4.34,1.66,1.4.67,2.45,1.54,3.61,2.36.42.3.87.58,1.3.88,1.46,2.42,2.52,4.92,3.06,7.5.27,3.03-.4,5.98-1.4,8.9Zm1.98-25.51c-.02,1.02-.05,2.05-.07,3.07-.04,1.43-.08,2.86-.11,4.3-.2.48-.39.96-.61,1.51-.98-1.03-.77-1.61-2.07-2.46-1.75-1.13-5.39-2.24-7.64-2.88-.03-.05-.05-.1-.07-.15-.29-.12-.59-.23-.87-.36,0,0,0,0,0,0,.12-.56,0-1.23,1.35-1.24,2.88-.16,5.93.13,7.97-1.76.91-.84.74-1.91,2.12-2.7v2.68c.08-.17.24-.35.32-.52-.08.17-.23.35-.32.52Zm5.05,2.54c-.07-.05,0-.01.01,0,0,0,0,0-.01,0Zm5.65-2.65c-.82.47-1.61.96-2.38,1.45-1.03.42-1.87,1.05-2.93,1.43,0,0,0,0-.02-.01-.07-.04-.14-.09-.21-.13-.04-.02-.07-.05-.1-.07-.01-.02-.14-.12-.15-.14-.06-.06-.11-.11-.16-.17,0,0,0,0-.01-.01-.54-1.74.2-3.53-.2-5.27-.12,0-.24.02-.36.05-.2-.12-.4-.25-.6-.37.2.12.4.25.6.37.12-.03.24-.05.36-.05.19-.19.4-.27.65-.04.73.06,1.5.28,2.1-.2,0,0,0,0,0,0,1.1-.14,2-.11,2.03.85.02.4.36.71.98.85h0s0-.01,0-.01c.75.49.61,1,.39,1.5Z"/>
  <path class="cls-3" d="m942.49,261.25c-14.59-41.3-49.74-79.24-102.54-109.69-70.79-40.83-164.85-63.31-264.86-63.31s-194.06,22.49-264.86,63.31c-56.83,32.77-93.2,74.22-105.51,119.2-.16.58.54,1.11,1.44,1.11h15.04c.7,0,1.3-.32,1.42-.77,12.07-41.83,46.3-80.41,99.41-111.04,67.54-38.95,157.41-60.41,253.05-60.41s185.51,21.45,253.05,60.41c49.29,28.43,82.34,63.7,96.48,102.07.33.9,1.56,1.53,2.99,1.53h11.85c1.97,0,3.45-1.18,3.02-2.42Z"/>
  <text/>
</svg>